<svg width="40" height="40" xmlns="http://www.w3.org/2000/svg">

 <g>
  <title>Layer 1</title>
  <path d="m5.17482,9.02098c0,0.13986 0,0.27972 0,0.55944c0,0.41958 0.0162,0.8341 0.13986,1.25874c0.16123,0.55366 0.27972,1.11888 0.27972,1.53846c0,0.55944 0,0.97902 0,1.3986c0,0.41958 0,0.97902 0,1.3986c0,0.41958 0,0.83916 0,1.3986c0,0.27972 0,0.6993 0,0.97902c0,0.27972 0,0.55944 0,0.83916c0,0.27972 0.04481,0.56305 0,0.83916c-0.07084,0.43657 -0.18332,0.71053 -0.27972,1.11888c-0.07185,0.30437 -0.13986,0.6993 -0.13986,0.83916c0,0.27972 0,0.13986 -0.13986,-0.13986l0,-0.13986l0,-0.27972" id="svg_4" stroke="#e228d9" fill="none"/>
  <path d="m6.15385,9.44056c0,-0.13986 -0.13986,-0.13986 0,-0.13986c0.27972,0 0.41958,0 0.6993,0c0.13986,0 0.41958,0 0.55944,0c0.13986,0 0.27972,0 0.41958,0c0.27972,0 0.55944,0 0.97902,0c0.41958,0 1.26227,0.12326 1.95804,0.27972c0.56261,0.12651 0.95437,0.20787 1.25874,0.27972c0.27224,0.06427 0.41958,0 0.55944,0c0.13986,0 0.2872,0.07559 0.55944,0.13986c0.30437,0.07185 0.58073,0.17268 0.83916,0.27972c0.18274,0.07569 0.41958,0.27972 0.55944,0.41958c0.13986,0.13986 0.2262,0.29037 0.27972,0.41958c0.07569,0.18274 0.13986,0.41958 0.27972,0.55944c0.13986,0.13986 0.09686,0.4456 0.27972,0.6993c0.11565,0.16046 0.16004,0.41037 0.27972,0.6993c0.16925,0.40861 0.23491,0.84277 0.27972,1.11888c0.07084,0.43657 0.27972,0.83916 0.27972,1.11888c0,0.41958 0.04481,0.70291 0,0.97902c-0.07084,0.43657 -0.27972,0.6993 -0.41958,1.11888c-0.13986,0.41958 -0.44619,0.68273 -0.6993,1.11888c-0.15697,0.27049 -0.15355,0.67475 -0.41958,0.83916c-0.11897,0.07353 -0.41958,0.27972 -0.6993,0.41958c-0.27972,0.13986 -0.42706,0.21545 -0.6993,0.27972c-0.30437,0.07185 -0.69009,0.2999 -0.97902,0.41958c-0.40861,0.16925 -0.69009,0.2999 -0.97902,0.41958c-0.40861,0.16925 -0.6993,0.27972 -0.97902,0.41958c-0.27972,0.13986 -0.3767,0.34389 -0.55944,0.41958c-0.12921,0.05352 -0.27972,0.13986 -0.55944,0.13986c-0.13986,0 -0.41958,0 -0.55944,0c-0.13986,0 -0.27972,0 -0.41958,0c-0.13986,0 -0.23684,0.06417 -0.41958,0.13986c-0.12921,0.05352 -0.27972,0 -0.55944,0c-0.13986,0 -0.27972,0 -0.41958,0l-0.13986,0l-0.13986,0l-0.13986,0" id="svg_5" stroke="#e228d9" fill="none"/>
  <path d="m24.1958,20.20979c0.13986,0.13986 0.13986,0.27972 0.13986,0.41958c0,0.13986 0.09505,0.42319 0.13986,0.6993c0.07084,0.43657 0.27972,0.83916 0.41958,1.3986c0.13986,0.55944 0.27972,1.25874 0.41958,1.95804c0.13986,0.6993 0.21051,1.68118 0.27972,2.51748c0.07017,0.84784 0.20945,1.38822 0.27972,2.0979c0.06891,0.6959 0,1.25874 0,1.67832c0,0.41958 0.13986,0.83916 0.13986,1.11888l0,0.13986l0,-0.13986" id="svg_6" stroke="#e228d9" fill="none"/>
  <path d="m25.31468,19.51049c0.13986,0 0.55438,0.0162 0.97902,0.13986c0.55366,0.16123 1.12466,0.25835 1.67832,0.41958c0.42464,0.12366 0.72532,0.23672 0.97902,0.41958c0.16046,0.11565 0.30393,0.11926 0.41958,0.27972c0.18286,0.25371 0.52014,0.60283 0.97902,0.97902c0.38998,0.3197 0.9676,0.71498 1.53846,1.11888c0.41166,0.29125 0.88758,0.65811 1.11888,0.97902c0.18286,0.25371 0.41958,0.6993 0.55944,0.97902c0.13986,0.27972 0.36512,0.86144 0.55944,1.25874c0.22155,0.453 0.43976,0.82995 0.55944,1.11888c0.16925,0.40861 0.13986,0.83916 0.13986,1.11888c0,0.27972 -0.19802,0.66589 -0.41958,1.11888c-0.19432,0.3973 -0.25033,0.85013 -0.41958,1.25874c-0.23936,0.57786 -0.4485,1.09268 -0.6993,1.3986c-0.3197,0.38997 -0.39898,0.72351 -0.55944,0.83916c-0.2537,0.18286 -0.53885,0.30393 -0.6993,0.41958c-0.25371,0.18286 -0.54585,0.17122 -0.83916,0.27972c-0.54084,0.20007 -0.82626,0.34912 -1.3986,0.41958c-0.27763,0.03418 -0.6993,0.13986 -0.97902,0.13986c-0.13986,0 -0.27972,0 -0.41958,0c-0.13986,0 -0.27972,0 -0.55944,0c-0.13986,0 -0.6993,0 -1.11888,0c-0.13986,0 -0.32068,0.0989 -0.41958,0c-0.09889,-0.0989 -0.04096,-0.18082 -0.13986,-0.27972c-0.0989,-0.0989 -0.32068,-0.04096 -0.41958,-0.13986c-0.0989,-0.0989 0.13986,-0.13986 0.41958,-0.27972l0.27972,-0.13986l0.27972,-0.13986" id="svg_7" stroke="#e228d9" fill="none"/>
  <path d="m6.23377,9.41558c0,0.12987 0,0.25974 0,0.51948c0,0.38961 0.21308,0.65606 0.12987,1.16883c-0.06578,0.40538 -0.27479,0.90439 -0.38961,1.2987c-0.14971,0.51411 -0.19396,0.76345 -0.25974,1.16883c-0.04161,0.25639 0,0.38961 0,0.51948c0,0.12987 0,0.25974 0,0.38961c0,0.12987 0,0.25974 0,0.51948c0,0.25974 0,0.38961 0,0.64935c0,0.25974 0,0.51948 0,0.64935c0,0.25974 0,0.38961 0,0.77922c0,0.12987 0.06315,0.23685 0.12987,0.51948c0.02984,0.1264 0,0.25974 0,0.51948c0,0.12987 -0.12987,0.38961 -0.12987,0.64935c0,0.25974 0,0.51948 0,0.77922c0,0.12987 0.0208,0.26142 0,0.38961c-0.06578,0.40538 -0.19302,0.62646 -0.25974,0.90909c-0.02984,0.1264 0.06315,0.02289 0.12987,-0.25974c0.02984,-0.1264 0.14861,-0.25119 0.25974,-0.51948c0.15716,-0.37942 0.20917,-0.79991 0.38961,-1.16883c0.20573,-0.42064 0.3742,-0.78249 0.51948,-1.42857c0.11748,-0.52242 0.19431,-1.02699 0.25974,-1.55844c0.06347,-0.51559 0,-1.03896 0,-1.55844c0,-0.51948 0,-1.03896 0,-1.42857c0,-0.51948 0,-0.77922 0,-0.90909c0,-0.12987 -0.12987,-0.25974 -0.12987,-0.51948c0,-0.12987 -0.12987,-0.25974 -0.12987,-0.38961c0,-0.12987 -0.16791,-0.16791 -0.25974,-0.25974c-0.09183,-0.09183 0,-0.25974 0,-0.38961c0,-0.12987 -0.02446,-0.00732 -0.12987,0.38961c-0.16997,0.64003 -0.22875,1.43437 -0.38961,2.20779c-0.10904,0.52425 -0.12987,1.16883 -0.12987,1.68831c0,0.51948 0,0.90909 0,1.2987c0,0.25974 -0.06315,0.62646 -0.12987,0.90909c-0.05968,0.25279 -0.05959,0.3498 -0.12987,0.51948c-0.0497,0.11998 -0.06315,0.23685 -0.12987,0.51948c-0.05968,0.25279 -0.0497,0.52937 0,0.64935c0.07029,0.16968 0.08017,0.26962 0.12987,0.38961c0.07029,0.16968 0.12987,0.25974 0.12987,0.38961c0,0.12987 0,0.25974 0,0.38961c0,0.25974 0,0.51948 0,0.77922c0,0.25974 -0.25974,0.77922 0,0.77922c0.12987,0 0,-0.51948 0,-1.03896c0,-0.51948 0,-0.77922 0,-1.16883c0,-0.38961 0.01239,-0.90615 0.12987,-1.42857c0.14528,-0.64608 0.33079,-1.18342 0.51948,-1.81818c0.19928,-0.67038 0.32614,-1.30259 0.38961,-1.81818c0.06543,-0.53146 0.08826,-1.04232 0.12987,-1.2987c0.06578,-0.40538 0.12987,-0.77922 0.12987,-1.16883c0,-0.51948 0,-0.90909 0,-1.42857c0,-0.51948 0,-0.90909 0,-1.2987c0,-0.25974 0.06315,-0.36672 0.12987,-0.64935c0.02984,-0.1264 0.25974,-0.51948 0.12987,-0.51948c-0.12987,0 -0.1286,0.36237 -0.25974,1.2987c-0.09007,0.64307 0,1.42857 0,2.07792c0,0.64935 0,1.03896 0,1.42857c0,0.38961 0.03174,0.6513 0,0.90909c-0.06543,0.53146 -0.2399,1.04433 -0.38961,1.55844c-0.22964,0.78861 -0.36845,1.56131 -0.51948,2.5974c-0.11395,0.78171 -0.24922,1.3126 -0.12987,1.81818c0.06672,0.28263 0.12987,0.38961 0.12987,0.51948c0,0.12987 -0.06315,0.23685 -0.12987,0.51948c-0.02984,0.1264 -0.25974,0.38961 -0.12987,0.38961c0.12987,0 0.06445,-0.37763 0.12987,-0.90909c0.06347,-0.51559 0.11732,-1.17103 0.25974,-1.94805c0.11938,-0.65136 0.24433,-1.1721 0.38961,-1.81818c0.11748,-0.52242 0.15433,-1.16151 0.25974,-1.55844c0.16997,-0.64003 0.07868,-1.30123 0.12987,-1.81818c0.06525,-0.65899 0.12987,-1.03896 0.12987,-1.68831c0,-0.38961 0,-0.90909 0,-1.16883c0,-0.25974 0.02984,-0.38614 0,-0.25974c-0.06672,0.28263 -0.32455,1.0329 -0.38961,2.07792c-0.05649,0.90733 -0.06523,2.07971 -0.12987,3.24675c-0.06503,1.17422 -0.11163,2.20996 -0.25974,3.37662c-0.11565,0.91101 -0.19468,1.55238 -0.25974,2.5974c-0.02421,0.38886 0,0.64935 0,1.03896c0,0.38961 0.11999,0.59965 0,0.64935c-0.16968,0.07029 -0.19431,-0.24776 -0.25974,-0.77922c-0.0476,-0.38669 -0.0664,-0.91298 -0.12987,-1.42857c-0.06543,-0.53146 -0.12987,-1.16883 -0.12987,-1.55844c0,-0.38961 0.04036,-0.78964 0.12987,-1.16883c0.06672,-0.28263 0.09006,-0.70893 0.25974,-0.77922c0.11998,-0.0497 0.12987,0.25974 0.12987,0.51948c0,0.38961 0,1.03896 0,1.55844c0,0.64935 0,1.16883 0,1.55844c0,0.51948 0,0.90909 0,1.03896c0,0.12987 0,0 0,-0.25974c0,-0.64935 0.12987,-1.2987 0.25974,-2.20779c0.12987,-0.90909 0.12987,-1.68831 0.12987,-2.46753c0,-0.64935 0.12987,-1.16883 0.12987,-1.42857c0,-0.12987 0,0 0,0.12987c0,0.25974 0.12987,0.77922 0.12987,1.42857c0,0.64935 -0.06471,1.42052 -0.12987,2.20779c-0.06427,0.77657 -0.06409,1.28293 -0.12987,1.68831c-0.06241,0.38458 -0.12987,0.77922 0,0.77922c0.12987,0 0.07868,-0.52201 0.12987,-1.03896c0.06525,-0.65899 0.25974,-1.42857 0.38961,-2.20779c0.12987,-0.77922 0.25974,-1.2987 0.25974,-1.68831c0,-0.25974 0.12987,-0.51948 0.12987,-0.38961c0,0.51948 0,1.03896 0,1.55844c0,0.51948 -0.06409,1.02319 -0.12987,1.42857c-0.04161,0.25639 0.0497,0.52937 0,0.64935c-0.07029,0.16968 -0.12987,0.25974 -0.12987,0.12987c0,-0.77922 0,-1.42857 0,-2.07792c0,-0.77922 0,-1.42857 0,-2.07792c0,-0.38961 0,-0.90909 -0.12987,-0.90909c-0.12987,0 0.05356,0.78143 0,1.42857c-0.06516,0.78728 -0.12987,1.55844 -0.12987,2.07792c0,0.51948 0,1.03896 0,1.42857c0,0.25974 -0.12987,0.64935 -0.12987,0.90909c0,0.25974 0,0.38961 0,0.51948c0,0.12987 0,0.25974 0,0.38961c0,0.12987 0.11998,0.46978 0,0.51948c-0.16968,0.07029 -0.12987,-0.25974 -0.12987,-0.64935c0,-0.51948 -0.06241,-0.91412 0,-1.2987c0.06578,-0.40538 0.15899,-0.7666 0.25974,-1.03896c0.18578,-0.50221 0.19396,-0.76345 0.25974,-1.16883c0.08321,-0.51277 0,-0.90909 0,-1.2987c0,-0.38961 0,-0.77922 0,-1.03896c0,-0.38961 0.07019,-0.6563 0.12987,-0.90909c0.06672,-0.28263 0.12987,-0.64935 0.25974,-1.03896c0.12987,-0.38961 0.12987,-0.77922 0.12987,-1.16883c0,-0.51948 0,-0.77922 0,-1.03896c0,-0.12987 -0.06315,-0.36672 -0.12987,-0.64935c-0.02984,-0.1264 0,-0.51948 0,-0.77922c0,-0.38961 0,-0.90909 0,-1.16883c0,-0.25974 0,-0.38961 0,-0.51948c0,-0.12987 0.02984,0.00347 0,0.12987c-0.13344,0.56526 -0.45423,1.15919 -0.51948,1.81818c-0.07678,0.77543 -0.12987,1.2987 -0.12987,1.81818c0,0.51948 0.12987,0.90909 0.12987,1.2987c0,0.38961 0.08321,0.65606 0,1.16883c-0.06578,0.40538 -0.32418,0.89712 -0.38961,1.42857c-0.0476,0.38669 0,0.90909 0,1.42857c0,0.38961 -0.05968,0.6563 0,0.90909c0.06672,0.28263 0.10003,0.52295 0.12987,0.64935c0.06672,0.28263 0.18946,0.3498 0.25974,0.51948c0.0497,0.11999 0,0.25974 0,0.38961c0,0.12987 0.12987,0.12987 0.12987,0.25974c0,0.12987 0,0.25974 0,0.38961c0,0.12987 0,0 0,-0.12987c0,-0.12987 0,0 0.12987,0l0.12987,0.12987l0,0.12987" id="svg_8" stroke="#e228d9" fill="none"/>
  <path d="m7.66234,8.37662c0,-0.12987 -0.06159,-0.14927 -0.12987,-0.25974c-0.15267,-0.24703 -0.51948,-0.12987 -0.64935,-0.12987c-0.12987,0 -0.28043,-0.05056 -0.64935,0.12987c-0.42064,0.20573 -0.6111,0.56444 -0.90909,0.77922c-0.23558,0.1698 -0.37972,0.33991 -0.25974,0.38961c0.16968,0.07028 0.38961,-0.38961 0.64935,-0.64935c0.12987,-0.12987 0.25974,-0.38961 0.12987,-0.38961c-0.12987,0 -0.02984,0.26321 0,0.38961c0.06672,0.28263 0.16034,0.40938 0.25974,0.64935c0.07028,0.16968 0.21004,0.3995 0.25974,0.51948c0.07028,0.16968 0.12987,0.25974 0.12987,0.38961c0,0.25974 0.03981,0.58977 -0.12987,0.51948c-0.11998,-0.0497 0,-0.38961 0.12987,-0.90909c0.12987,-0.51948 0.21813,-1.04232 0.25974,-1.2987c0.06578,-0.40538 0.25958,-0.77275 0.12987,-0.77922c-1.30356,-0.06502 -0.19431,1.4166 -0.25974,1.94805c-0.03174,0.25779 -0.12987,0.64935 0,0.64935c0.12987,0 0,-0.25974 0,-0.51948c0,-0.12987 0.02471,-0.50409 0.25974,-0.90909c0.14576,-0.25117 0.25974,-0.38961 0.38961,-0.38961c0.12987,0 0.25974,0 0.38961,0c0.25974,0 0.38961,0 0.51948,0c0.12987,0 0.25974,0 0.38961,0.12987c0.12987,0.12987 0.40938,0.03047 0.64935,0.12987c0.16968,0.07029 0.38961,0.12987 0.51948,0.12987c0.12987,0 0.12987,0.12987 0.25974,0.25974c0.12987,0.12987 0.38961,0.25974 0.38961,0.12987c0,-0.12987 -0.51093,-0.01874 -0.77922,-0.12987c-0.37942,-0.15716 -0.69959,-0.37891 -1.03896,-0.51948c-0.11998,-0.0497 -0.16791,-0.03804 -0.25974,-0.12987c-0.09183,-0.09183 -0.12987,-0.12987 0,-0.12987c0.12987,0 0.38961,0 0.90909,0c0.51948,0 0.90909,0 1.2987,0c0.25974,0 0.51948,0 0.77922,0c0.12987,0 0.25974,0 0.38961,0c0.12987,0 0.23685,0.19302 0.51948,0.25974c0.37919,0.08951 0.72543,-0.05379 0.90909,0.12987c0.09183,0.09183 0.12987,0.12987 0,0.12987c-0.12987,0 -0.25974,0 -0.38961,0c-0.25974,0 -0.39818,0.01589 -0.64935,-0.12987c-0.405,-0.23503 -0.87048,-0.45992 -1.2987,-0.64935c-0.48969,-0.21663 -0.75633,-0.32289 -1.03896,-0.38961c-0.1264,-0.02984 -0.25974,-0.12987 -0.38961,-0.12987c-0.12987,0 0.01977,-0.0994 0.25974,0c0.16968,0.07028 0.38961,0.12987 0.51948,0.12987c0.25974,0 0.51093,0.14861 0.77922,0.25974c0.37942,0.15716 0.50371,0.19396 0.90909,0.25974c0.12819,0.0208 0.27951,0.03047 0.51948,0.12987c0.16968,0.07029 0.38961,0.25974 0.38961,0.12987c0,-0.12987 -0.52451,0.06241 -0.90909,0c-0.40538,-0.06578 -0.89712,-0.19431 -1.42857,-0.25974c-0.51559,-0.06347 -1.03896,0 -1.42857,0c-0.51948,0 -0.77922,-0.12987 -1.16883,-0.12987c-0.38961,0 -0.64935,-0.12987 -0.90909,-0.12987c-0.12987,0 0,0 0.38961,0c0.25974,0 0.51948,0 0.90909,0c0.38961,0 0.76345,0.06409 1.16883,0.12987c0.12819,0.0208 0.38961,0 0.51948,0c0.12987,0 0.36672,0.06315 0.64935,0.12987c0.25279,0.05968 0.47967,0.05958 0.64935,0.12987c0.11998,0.0497 0.16791,0.16791 0.25974,0.25974c0.09183,0.09183 0.2839,0.21981 0.51948,0.38961c0.149,0.10739 0.25974,0.25974 0.38961,0.38961c0.12987,0.12987 0.25974,0.12987 0.38961,0.25974c0.12987,0.12987 0.29778,0.16791 0.38961,0.25974c0.09183,0.09183 0.12987,0.12987 0.38961,0.25974c0.25974,0.12987 0.51948,0.25974 0.64935,0.25974c0.12987,0 -0.02416,0.03993 -0.25974,-0.12987c-0.149,-0.10739 -0.23685,-0.19302 -0.51948,-0.25974c-0.25279,-0.05968 -0.65227,-0.08227 -1.03896,-0.12987c-0.53146,-0.06543 -1.03896,-0.25974 -1.42857,-0.25974c-0.25974,0 -0.25974,-0.12987 -0.38961,-0.12987c-0.12987,0 -0.21004,-0.00989 -0.25974,-0.12987c-0.07029,-0.16968 0.51948,-0.12987 0.90909,-0.12987c0.51948,0 0.90909,0 1.2987,0c0.25974,0 0.36672,0.06315 0.64935,0.12987c0.1264,0.02984 0.36672,0.06315 0.64935,0.12987c0.25279,0.05968 0.52295,-0.02984 0.64935,0c0.28263,0.06672 0.3995,0.08017 0.51948,0.12987c0.16968,0.07029 0.31932,0.21993 0.38961,0.38961c0.0497,0.11998 0.19302,0.23685 0.25974,0.51948c0.02984,0.1264 0.12987,0.38961 0.12987,0.25974c0,-0.12987 -0.25974,-0.25974 -0.38961,-0.51948c-0.12987,-0.25974 -0.12987,-0.51948 -0.25974,-0.77922c-0.12987,-0.25974 -0.21981,-0.54364 -0.38961,-0.77922c-0.10739,-0.149 -0.4599,-0.21993 -0.38961,-0.38961c0.0497,-0.11998 0.26963,0.08017 0.38961,0.12987c0.16968,0.07029 0.2839,0.21981 0.51948,0.38961c0.149,0.10739 0.28222,0.24061 0.38961,0.38961c0.1698,0.23558 0.28445,0.63397 0.51948,1.03896c0.14576,0.25117 0.25974,0.51948 0.38961,0.77922c0.12987,0.25974 0.25974,0.38961 0.25974,0.51948c0,0.12987 -0.0497,0.26963 0,0.38961c0.07029,0.16968 -0.01019,0.15716 -0.38961,0c-0.26829,-0.11113 -0.61832,-0.18388 -1.03896,-0.38961c-0.36893,-0.18044 -0.74097,-0.43457 -1.03896,-0.64935c-0.23558,-0.1698 -0.38961,-0.25974 -0.64935,-0.51948c-0.25974,-0.25974 -0.48299,-0.4299 -0.90909,-0.77922c-0.36212,-0.29687 -0.81948,-0.43344 -1.16883,-0.64935c-0.15623,-0.09656 -0.35157,-0.16791 -0.25974,-0.25974c0.09183,-0.09183 0.39129,-0.0208 0.51948,0c0.40538,0.06578 0.63396,0.28445 1.03896,0.51948c0.50234,0.29152 0.90909,0.51948 1.16883,0.64935c0.25974,0.12987 0.54196,0.24061 0.64935,0.38961c0.1698,0.23558 0.25974,0.64935 0.38961,0.51948c0.12987,-0.12987 -0.24061,-0.15235 -0.38961,-0.25974c-0.23558,-0.1698 -0.4537,-0.37384 -0.51948,-0.77922c-0.04161,-0.25639 -0.08017,-0.65924 -0.12987,-0.77922c-0.07029,-0.16968 -0.08017,-0.26963 -0.12987,-0.38961c-0.07029,-0.16968 0,-0.12987 0.25974,-0.12987c0.12987,0 0.28222,-0.01913 0.38961,0.12987c0.1698,0.23558 0.38961,0.51948 0.51948,0.77922c0.12987,0.25974 0.38961,0.51948 0.38961,0.64935c0,0.12987 0.12987,0.12987 0.12987,0.25974c0,0.12987 0,0.25974 0.12987,0.38961c0.12987,0.12987 0.08994,0.2839 0.25974,0.51948c0.10739,0.149 0.12987,0.38961 0.12987,0.64935c0,0.25974 0.06315,0.49659 0.12987,0.77922c0.02984,0.1264 0.05959,0.3498 0.12987,0.51948c0.0497,0.11998 0.05959,0.21993 0.12987,0.38961c0.0497,0.11998 0.12987,0.25974 0.12987,0.38961c0,0.12987 0.06315,0.23685 0.12987,0.51948c0.02984,0.1264 0.08017,0.3995 0.12987,0.51948c0.07028,0.16968 0.15971,-0.00347 0.12987,-0.12987c-0.06672,-0.28263 -0.19302,-0.49659 -0.25974,-0.77922c-0.02984,-0.1264 0,-0.38961 0,-0.51948c0,-0.25974 0.08994,-0.54364 0.25974,-0.77922c0.21478,-0.29799 0.21993,-0.57907 0.38961,-0.64935c0.11998,-0.0497 0.18946,0.09006 0.25974,0.25974c0.1491,0.35995 0,0.77922 0,1.2987c0,0.38961 -0.12987,0.77922 -0.25974,1.16883c-0.12987,0.38961 -0.40835,0.77067 -0.51948,1.03896c-0.15716,0.37942 -0.32289,0.62646 -0.38961,0.90909c-0.02984,0.1264 -0.12987,0.25974 -0.12987,0.38961c0,0.12987 -0.19396,0.37384 -0.25974,0.77922c-0.04161,0.25639 -0.19302,0.62646 -0.25974,0.90909c-0.05968,0.25279 -0.08017,0.52937 -0.12987,0.64935c-0.07028,0.16969 -0.16791,0.29778 -0.25974,0.38961c-0.09183,0.09183 0,0.25974 -0.12987,0.25974c-0.12987,0 -0.25974,0 -0.25974,-0.12987c0,-0.12987 0.22261,-0.4171 0.51948,-0.77922c0.23288,-0.28407 0.51948,-0.77922 0.77922,-1.16883c0.25974,-0.38961 0.41432,-0.76383 0.64935,-1.16883c0.14576,-0.25117 0.21981,-0.67351 0.38961,-0.90909c0.10739,-0.149 0.25974,-0.38961 0.25974,-0.64935c0,-0.25974 0,-0.38961 0,-0.51948c0,-0.12987 0,0 0,0.12987c0,0.38961 0,0.64935 0,1.03896c0,0.25974 0,0.51948 0,0.77922c0,0.12987 -0.06315,0.23685 -0.12987,0.51948c-0.05968,0.25279 -0.12987,0.38961 -0.25974,0.64935c-0.12987,0.25974 -0.1737,0.42987 -0.38961,0.77922c-0.09656,0.15623 -0.25974,0.25974 -0.25974,0.38961c0,0.12987 -0.13976,0.08017 -0.25974,0.12987c-0.16968,0.07029 -0.25974,0.25974 -0.38961,0.38961c-0.12987,0.12987 -0.25974,0.12987 -0.38961,0.25974c-0.12987,0.12987 -0.03804,0.29778 -0.12987,0.38961c-0.09183,0.09183 -0.03804,0.16791 -0.12987,0.25974c-0.09183,0.09183 -0.21993,0.05958 -0.38961,0.12987c-0.11998,0.0497 -0.26963,0.08017 -0.38961,0.12987c-0.16968,0.07028 -0.25974,0.12987 -0.38961,0.12987c-0.12987,0 -0.39656,0.07019 -0.64935,0.12987c-0.28263,0.06672 -0.47967,0.18946 -0.64935,0.25974c-0.11998,0.0497 -0.25974,0 -0.38961,0c-0.12987,0 0,0 0.25974,0c0.25974,0 0.51948,0 0.90909,0c0.12987,0 0.40938,-0.03047 0.64935,-0.12987c0.16968,-0.07029 0.3995,-0.21004 0.51948,-0.25974c0.16968,-0.07028 0.25974,-0.12987 0.38961,-0.12987c0.25974,0 0.38961,-0.12987 0.38961,0c0,0.12987 0.09183,0.29778 0,0.38961c-0.18366,0.18366 -0.39656,0.07019 -0.64935,0.12987c-0.28263,0.06672 -0.50371,0.19396 -0.90909,0.25974c-0.25639,0.0416 -0.6408,0.01874 -0.90909,0.12987c-0.37942,0.15716 -0.77922,0.12987 -1.2987,0.25974c-0.51948,0.12987 -0.90909,0.12987 -1.2987,0.25974c-0.38961,0.12987 -0.64935,0.12987 -0.90909,0.12987c-0.25974,0 -0.38961,0 -0.51948,0c-0.12987,0 -0.26321,0.02984 -0.38961,0c-0.28263,-0.06672 -0.66912,-0.03047 -0.90909,-0.12987c-0.16968,-0.07029 -0.32802,-0.14927 -0.25974,-0.25974c0.15267,-0.24703 0.30998,-0.24904 0.64935,-0.38961c0.23997,-0.0994 0.3498,-0.05959 0.51948,-0.12987c0.11998,-0.0497 0.25974,0 0.51948,0c0.38961,0 0.8862,0.06315 1.16883,0.12987c0.50558,0.11935 1.03896,0 1.55844,-0.12987c0.51948,-0.12987 1.02357,-0.41432 1.42857,-0.64935c0.25117,-0.14576 0.3498,-0.31933 0.51948,-0.38961c0.11998,-0.0497 0.12987,-0.12987 0.25974,-0.12987c0.25974,0 0.42765,-0.03804 0.51948,-0.12987c0.09183,-0.09183 -0.12987,-0.12987 -0.51948,0c-0.38961,0.12987 -0.86326,0.21741 -1.2987,0.38961c-0.73462,0.2905 -1.39117,0.38722 -2.07792,0.51948c-0.51011,0.09824 -1.16883,0.12987 -1.68831,0.12987c-0.38961,0 -0.77922,0 -1.03896,0c-0.25974,0 -0.42765,-0.03804 -0.51948,-0.12987c-0.09183,-0.09183 -0.4599,0.03981 -0.38961,-0.12987c0.0497,-0.11999 0.63737,-0.32419 1.16883,-0.38961c0.51559,-0.06347 1.30869,-0.09499 1.81818,-0.25974c0.66545,-0.21518 1.43552,-0.32994 1.68831,-0.38961c0.28263,-0.06672 0.3995,-0.08017 0.51948,-0.12987c0.16968,-0.07029 0.64935,0.12987 0.64935,-0.12987c0,-0.12987 -0.21993,-0.05959 -0.38961,-0.12987c-0.11998,-0.0497 -0.38961,0 -0.64935,0c-0.51948,0 -1.03896,0 -1.68831,0c-0.64935,0 -1.19849,-0.1491 -1.55844,0c-0.16968,0.07029 -0.25974,0.12987 -0.38961,0.12987c-0.12987,0 -0.25974,0 -0.38961,0c-0.12987,0 -0.35157,0.03804 -0.25974,0.12987c0.09183,0.09183 0.39656,0.07019 0.64935,0.12987c0.28263,0.06672 0.90909,0.12987 1.68831,0.12987c0.64935,0 1.16883,0 1.81818,0c0.64935,0 1.16883,0 1.42857,0c0.25974,0 0.25974,-0.12987 0.38961,-0.12987c0.25974,0 0.38961,-0.12987 0.38961,-0.25974c0,-0.12987 0.05958,-0.3498 0.12987,-0.51948c0.0497,-0.11998 0.03804,-0.16791 0.12987,-0.25974c0.09183,-0.09183 0.25974,-0.12987 0.38961,-0.25974c0.12987,-0.12987 0.12819,-0.28054 0,-0.25974c-0.40538,0.06578 -0.77922,0.25974 -1.16883,0.38961c-0.38961,0.12987 -0.60954,0.18946 -0.77922,0.25974c-0.35995,0.1491 -0.51948,0.12987 -0.90909,0.12987c-0.12987,0 -0.21993,0.05959 -0.38961,0.12987c-0.11998,0.0497 -0.39308,0.10003 -0.51948,0.12987c-0.28263,0.06672 -0.52643,0.20007 -0.77922,0.25974c-0.28263,0.06672 -0.52937,0.21004 -0.64935,0.25974c-0.16968,0.07029 -0.26963,0.08017 -0.38961,0.12987c-0.16968,0.07028 -0.38961,0.12987 -0.51948,0.12987c-0.12987,0 -0.25974,0 -0.38961,0c-0.25974,0 -0.3498,0.05959 -0.51948,0.12987c-0.11998,0.0497 -0.23685,0.19302 -0.51948,0.25974c-0.1264,0.02984 -0.38961,0.25974 -0.38961,0.38961c0,0.12987 -0.12987,0.25974 -0.12987,0.38961c0,0.12987 0,0.25974 0,0.38961c0,0.12987 0.00168,0.23894 0.12987,0.25974c0.40538,0.06578 0.64935,0.12987 1.03896,0.12987c0.38961,0 0.68739,-0.09183 0.77922,0c0.09183,0.09183 0.12987,0.12987 0.25974,0.12987c0.25974,0 0.51948,0 0.64935,0c0.25974,0 0.12987,0 -0.25974,0c-0.38961,0 -0.77922,0 -1.2987,0c-0.38961,0 -0.77922,0 -1.03896,0.12987l-0.12987,0l0,-0.12987" id="svg_11" stroke="#e228d9" fill="none"/>
  <path d="m26.23377,19.80519c0,0.12987 0,0.25974 0,0.38961c0,0.25974 -0.0497,0.3995 0,0.51948c0.07028,0.16968 0.17147,0.52283 0.12987,0.77922c-0.06578,0.40538 -0.38961,1.03896 -0.51948,1.68831c-0.12987,0.64935 -0.25974,1.42857 -0.25974,1.94805c0,0.51948 0,0.90909 0,1.16883c0,0.12987 0,0 0,-0.12987c0,-0.38961 -0.12987,-0.77922 -0.25974,-1.2987c-0.12987,-0.51948 -0.12987,-1.16883 -0.12987,-1.81818c0,-0.51948 0,-1.16883 0,-1.42857c0,-0.25974 0,-0.51948 0,-0.64935c0,-0.25974 0,-0.38961 0,-0.64935c0,-0.12987 0,-0.25974 0,-0.12987c0,0.25974 -0.10402,0.78761 0,1.42857c0.13157,0.81076 0.32562,1.43173 0.38961,2.07792c0.06525,0.65899 0.21308,1.17554 0.12987,1.68831c-0.06578,0.40538 -0.31932,0.60954 -0.38961,0.77922c-0.0497,0.11999 -0.12987,0.12987 -0.25974,0c-0.12987,-0.12987 -0.41142,-0.50913 -0.64935,-1.03896c-0.2865,-0.63799 -0.58123,-1.28077 -0.77922,-2.07792c-0.19042,-0.76667 -0.33652,-1.56223 -0.25974,-2.33766c0.06525,-0.65899 0.25974,-1.2987 0.38961,-1.55844c0.12987,-0.25974 0.25974,-0.25974 0.25974,-0.12987c0,0.38961 0,0.90909 0,1.42857c0,0.51948 0.12987,1.16883 0.12987,1.55844c0,0.64935 0.0664,1.17272 0.12987,1.68831c0.06542,0.53146 0.12987,0.90909 0.12987,1.2987c0,0.38961 -0.05958,0.60954 -0.12987,0.77922c-0.0994,0.23997 -0.12987,0.25974 -0.12987,0.12987c0,-0.12987 0.25974,-0.77922 0.51948,-1.68831c0.25974,-0.90909 0.63208,-1.69278 0.90909,-2.72727c0.24456,-0.91329 0.32383,-1.4128 0.38961,-1.81818c0.0416,-0.25639 0.02559,-0.12861 0,0.12987c-0.06525,0.65899 -0.21589,1.17742 -0.38961,1.94805c-0.20792,0.92233 -0.35879,1.9546 -0.64935,3.24675c-0.23495,1.04485 -0.64935,2.20779 -0.77922,2.85714c-0.12987,0.64935 -0.12987,0.90909 -0.12987,0.77922c0,-0.25974 0.06444,-0.63737 0.12987,-1.16883c0.06347,-0.51559 0.13694,-1.05068 0.25974,-1.68831c0.13226,-0.68675 0.36845,-1.43144 0.51948,-2.46753c0.11395,-0.78171 0.12578,-1.48209 0.38961,-1.94805c0.09049,-0.15982 0.19302,0.10698 0.25974,0.38961c0.11935,0.50558 0.12987,1.03896 0.12987,1.81818c0,0.77922 -0.00907,1.55698 -0.12987,2.33766c-0.14043,0.90752 -0.3064,1.95476 -0.38961,2.46753c-0.06578,0.40538 -0.16791,0.81726 -0.25974,0.90909c-0.09183,0.09183 0,0 0,-0.12987c0,-0.25974 0.06462,-0.50984 0.12987,-1.16883c0.06399,-0.64619 0.05309,-1.56223 0.12987,-2.33766c0.06525,-0.65899 0.19919,-1.57099 0.38961,-2.33766c0.099,-0.39857 0.25974,-0.64935 0.25974,-0.51948c0,0.51948 0.05524,1.30066 0,2.07792c-0.0651,0.91601 -0.25974,1.81818 -0.51948,2.72727c-0.25974,0.90909 -0.38961,1.81818 -0.64935,2.46753c-0.25974,0.64935 -0.3337,1.1861 -0.51948,1.68831c-0.10075,0.27236 -0.12987,0.38961 -0.12987,0.25974c0,-0.12987 -0.04285,-0.78099 0,-1.2987c0.06516,-0.78728 0.21132,-1.43007 0.25974,-2.20779c0.06506,-1.04502 0.22892,-1.9546 0.51948,-3.24675c0.11748,-0.52242 0.21981,-1.06312 0.38961,-1.2987c0.10739,-0.149 0.06672,-0.02289 0,0.25974c-0.17903,0.75838 -0.09888,1.69411 -0.25974,2.46753c-0.21807,1.0485 -0.51037,2.20897 -0.64935,3.24675c-0.12189,0.9102 -0.45406,1.54647 -0.51948,2.07792c-0.0476,0.38669 -0.25974,0.64935 -0.12987,0.64935c0.12987,0 0,-0.25974 0,-0.77922c0,-0.51948 0,-1.16883 0,-2.07792c0,-0.90909 0.00712,-1.94719 0.12987,-2.98701c0.13787,-1.16791 0.25974,-2.33766 0.38961,-3.37662c0.12987,-1.03896 0.25974,-1.68831 0.25974,-1.94805c0,-0.12987 0,0 0,0.25974c0,0.64935 0,1.42857 0,2.20779c0,0.90909 -0.18374,2.06592 -0.38961,3.11688c-0.17653,0.90119 -0.32445,1.68025 -0.38961,2.46753c-0.04285,0.51771 0,0.90909 0,1.16883c0,0.12987 0.12987,0.12987 0.12987,-0.12987c0,-0.25974 -0.12987,-0.51948 -0.25974,-0.90909c-0.12987,-0.38961 -0.24719,-1.04116 -0.38961,-1.81818c-0.11938,-0.65136 -0.12987,-1.55844 -0.12987,-2.33766c0,-0.77922 0,-1.55844 0,-2.20779c0,-0.25974 -0.12987,-0.25974 -0.12987,0c0,0.64935 -0.19414,1.5611 -0.12987,2.33766c0.06516,0.78728 0.19449,1.67867 0.25974,2.33766c0.06399,0.64619 0.19396,1.02319 0.25974,1.42857c0.08321,0.51277 0.12987,0.90909 0.12987,1.2987c0,0.38961 0,0.77922 0,1.16883c0,0.25974 0.0994,0.53925 0,0.77922c-0.07029,0.16968 -0.12987,0 -0.12987,-0.25974c0,-0.25974 -0.0702,-0.6563 -0.12987,-0.90909c-0.06672,-0.28263 -0.12987,-0.64935 -0.12987,-1.2987c0,-0.51948 0.01239,-1.42563 0.12987,-1.94805c0.14528,-0.64608 0.18946,-0.99915 0.25974,-1.16883c0.0497,-0.11999 0.03331,-0.02636 0.12987,0.12987c0.21591,0.34935 0.32445,1.0309 0.38961,1.81818c0.09641,1.16485 0,1.94805 -0.12987,2.72727c-0.12987,0.77922 -0.07396,1.31598 -0.25974,1.81818c-0.10075,0.27236 -0.12987,0.12987 -0.12987,-0.12987c0,-0.38961 0,-0.64935 0,-0.90909c0,-0.25974 0.06315,-0.49659 0.12987,-0.77922c0.05968,-0.25279 0.25974,-0.51948 0.51948,-0.77922c0.12987,-0.12987 0.29778,-0.35157 0.38961,-0.25974c0.09183,0.09183 0,0.38961 0,0.77922c0,0.38961 -0.08951,0.78964 0,1.16883c0.06672,0.28263 0,0.51948 0.12987,0.51948c0.12987,0 0.12987,-0.38961 0.12987,-0.64935c0,-0.25974 0,-0.38961 0,-0.64935c0,-0.12987 -0.03047,-0.27951 -0.12987,-0.51948c-0.07029,-0.16968 -0.12987,-0.38961 -0.12987,-0.64935c0,-0.25974 -0.06241,-0.65438 0,-1.03896c0.06578,-0.40538 0.09006,-0.71964 0.25974,-0.64935c0.11998,0.0497 0.15433,0.25242 0.25974,0.64935c0.16997,0.64002 0.36977,1.1742 0.51948,1.68831c0.11482,0.39431 0.03047,0.66912 0.12987,0.90909c0.07029,0.16968 0.25974,0.12987 0.38961,0.12987c0.12987,0 0.25974,-0.25974 0.25974,-0.51948c0,-0.25974 0,-0.64935 0,-0.90909c0,-0.38961 0.25974,-0.90909 0,-0.90909c-0.12987,0 -0.12987,0.38961 -0.12987,0.51948c0,0.51948 -0.12987,1.03896 -0.12987,1.2987c0,0.38961 0.09183,0.68739 0,0.77922c-0.09183,0.09183 -0.25974,0 -0.38961,0c-0.12987,0 -0.38961,-0.12987 -0.64935,-0.12987c-0.25974,0 -0.38961,-0.12987 -0.51948,-0.12987c-0.12987,0 -0.25974,0 -0.38961,0c-0.12987,0 -0.25974,0 -0.38961,0c-0.12987,0 0,0 0.38961,0c0.38961,0 0.77922,0 1.16883,0c0.38961,0 0.64935,0 0.77922,0c0.12987,0 0.51948,-0.12987 0.77922,-0.12987c0.38961,0 0.64935,-0.12987 0.90909,-0.12987c0.12987,0 0.25974,0 0.38961,0c0.12987,0 0.38961,0 0.90909,0c0.64935,0 1.42857,0 2.33766,0c1.03896,0 1.81818,0.12987 1.81818,0c0,-0.12987 -0.26309,0.04161 -0.51948,0c-0.40539,-0.06578 -0.91748,-0.23389 -1.55844,-0.12987c-0.40538,0.06578 -0.64935,0.12987 -0.90909,0.12987c-0.12987,0 -0.25974,0 -0.38961,0c-0.51948,0 -1.29264,-0.06481 -2.33766,-0.12987c-0.6481,-0.04035 -1.55844,0 -2.07792,0c-0.25974,0 -0.37972,-0.0497 -0.25974,0c0.16968,0.07029 0.64935,0.25974 1.2987,0.25974c0.77922,0 1.55844,0 2.07792,0c0.64935,0 0.90909,0 1.16883,0c0.38961,0 0.51948,0 0.64935,0c0.12987,0 0.21993,0.05959 0.38961,0.12987c0.11998,0.0497 0.51948,0.12987 0.51948,0c0,-0.12987 -0.39296,-0.04161 -0.64935,0c-0.40538,0.06578 -0.77922,0.25974 -1.03896,0.25974c-0.25974,0 -0.6527,0.08826 -0.90909,0.12987c-0.40538,0.06578 -0.78214,0.08227 -1.16883,0.12987c-0.53146,0.06543 -0.75633,0.19302 -1.03896,0.25974c-0.1264,0.02984 -0.23685,-0.06315 -0.51948,-0.12987c-0.25279,-0.05968 -0.64935,-0.12987 -0.64935,0c0,0.12987 0.1349,0.06746 0.51948,0.12987c0.40538,0.06578 0.77922,0.25974 1.03896,0.25974c0.38961,0 0.65227,-0.08227 1.03896,-0.12987c0.53146,-0.06542 1.03602,-0.27213 1.55844,-0.38961c0.64608,-0.14528 1.04399,-0.19733 1.42857,-0.25974c0.40538,-0.06578 0.64935,0 0.64935,-0.12987c0,-0.12987 -0.26993,-0.02729 -0.64935,0.12987c-0.26829,0.11113 -0.91446,0.2399 -1.42857,0.38961c-0.78861,0.22964 -1.04383,0.31027 -1.68831,0.38961c-0.53146,0.06543 -1.0309,0.19458 -1.81818,0.25974c-0.64714,0.05356 -1.16883,0 -1.68831,0c-0.38961,0 -0.51948,0 -0.64935,0c-0.12987,0 0,0 0.25974,0c0.12987,0 0.36672,-0.06315 0.64935,-0.12987c0.1264,-0.02984 0.3498,-0.05959 0.51948,-0.12987c0.11999,-0.0497 0.51948,0 1.03896,0c0.51948,0 1.42857,0 2.33766,0c1.03896,0 1.95738,-0.08977 2.5974,-0.25974c0.39693,-0.10541 0.55752,-0.16791 0.64935,-0.25974c0.09183,-0.09183 0.23685,-0.19302 0.51948,-0.25974c0.12639,-0.02984 0.39296,-0.08826 0.64935,-0.12987c0.40538,-0.06578 0.514,-0.50396 1.2987,-0.77922c0.12255,-0.04299 0.19302,-0.10698 0.25974,-0.38961c0.02984,-0.1264 0.18946,-0.3498 0.25974,-0.51948c0.0497,-0.11999 0.32636,-0.33688 0.51948,-0.64935c0.21591,-0.34935 0.54419,-0.76383 0.77922,-1.16883c0.29152,-0.50234 0.25974,-0.90909 0.25974,-1.16883c0,-0.25974 -0.03804,-0.42765 -0.12987,-0.51948c-0.09183,-0.09183 -0.16791,-0.2217 -0.25974,-0.12987c-0.09183,0.09183 -0.09006,0.18946 -0.25974,0.25974c-0.11998,0.0497 -0.2221,0.13544 -0.25974,0.25974c-0.13569,0.44816 -0.44362,0.61832 -0.64935,1.03896c-0.18044,0.36893 -0.32729,0.69139 -0.51948,0.90909c-0.30989,0.35104 -0.62502,0.54634 -0.90909,0.77922c-0.36212,0.29687 -0.6111,0.43457 -0.90909,0.64935c-0.23558,0.1698 -0.42765,0.29778 -0.51948,0.38961c-0.09183,0.09183 0.00857,0.01589 0.25974,-0.12987c0.40499,-0.23503 0.75148,-0.28294 1.2987,-0.90909c0.49833,-0.5702 0.82378,-1.15273 1.03896,-1.81818c0.16475,-0.5095 0.25974,-0.90909 0.25974,-1.2987c0,-0.25974 0,-0.38961 0,-0.64935c0,-0.12987 -0.12987,-0.25974 -0.12987,-0.38961c0,-0.12987 0.0497,-0.26963 0,-0.38961c-0.07029,-0.16968 -0.03804,-0.29778 -0.12987,-0.38961c-0.09183,-0.09183 -0.06672,0.10698 0,0.38961c0.08951,0.37919 0.12987,0.64935 0.12987,1.16883c0,0.38961 0,0.77922 0,1.16883c0,0.38961 0.12987,0.64935 0.12987,0.90909c0,0.12987 -0.0497,0.26963 0,0.38961c0.07028,0.16968 0.10571,0.21981 -0.12987,0.38961c-0.149,0.10739 -0.41376,0.34968 -0.64935,0.51948c-0.29799,0.21478 -0.52967,0.36232 -0.90909,0.51948c-0.26829,0.11113 -0.52937,0.21004 -0.64935,0.25974c-0.16968,0.07029 -0.2217,0.29778 -0.12987,0.38961c0.09183,0.09183 0.25974,0 0.51948,0c0.25974,0 0.52937,-0.08017 0.64935,-0.12987c0.16969,-0.07029 0.41376,-0.21981 0.64935,-0.38961c0.149,-0.10739 0.28222,-0.37049 0.38961,-0.51948c0.1698,-0.23558 0.25974,-0.51948 0.38961,-0.77922c0.12987,-0.25974 0.25974,-0.51948 0.25974,-0.77922c0,-0.12987 0.12987,-0.38961 0.12987,-0.64935c0,-0.25974 0.06746,-0.52451 0.12987,-0.90909c0.06578,-0.40538 0.12987,-0.77922 0.12987,-1.03896c0,-0.25974 0,-0.51948 0,-0.64935c0,-0.12987 -0.03804,-0.16791 -0.12987,-0.25974c-0.09183,-0.09183 0.03993,-0.2839 -0.12987,-0.51948c-0.10739,-0.14899 -0.18945,-0.3498 -0.25974,-0.51948c-0.0497,-0.11999 -0.08017,-0.3995 -0.12987,-0.51948c-0.07028,-0.16968 -0.18945,-0.21993 -0.25974,-0.38961c-0.0497,-0.11998 -0.1264,-0.41945 0,-0.38961c0.28263,0.06672 0.47967,0.31932 0.64935,0.38961c0.11998,0.0497 0.31933,0.09006 0.38961,0.25974c0.0497,0.11998 0.18946,0.09006 0.25974,0.25974c0.0497,0.11998 0.08017,0.3995 0.12987,0.51948c0.07029,0.16968 0.11998,0.43931 0,0.38961c-0.16968,-0.07029 -0.39949,-0.21004 -0.51948,-0.25974c-0.16969,-0.07028 -0.25974,-0.12987 -0.38961,-0.25974c-0.12987,-0.12987 -0.32133,-0.14927 -0.38961,-0.25974c-0.15267,-0.24703 -0.29831,-0.33946 -0.64935,-0.64935c-0.2177,-0.19218 -0.51948,-0.51948 -0.90909,-0.90909c-0.25974,-0.25974 -0.64935,-0.64935 -0.90909,-0.90909c-0.12987,-0.12987 -0.12987,-0.25974 -0.25974,-0.25974c-0.12987,0 0.09337,0.17016 0.51948,0.51948c0.36212,0.29687 0.68964,0.61286 1.03896,1.03896c0.29687,0.36212 0.64935,0.90909 0.90909,1.2987c0.25974,0.38961 0.45624,0.59662 0.64935,0.90909c0.21591,0.34935 0.34968,0.67351 0.51948,0.90909c0.10739,0.149 0.31933,0.21993 0.38961,0.38961c0.0497,0.11999 0,0.38961 0,0.64935c0,0.25974 -0.06315,0.49659 -0.12987,0.77922c-0.02984,0.1264 0.03804,0.48144 0.12987,0.38961c0.09183,-0.09183 0,-0.25974 0,-0.51948c0,-0.12987 0,-0.25974 0,-0.51948c0,-0.12987 0,-0.25974 0,-0.38961c0,-0.12987 0,-0.38961 0,-0.64935c0,-0.38961 -0.12987,-0.77922 -0.25974,-1.2987c-0.12987,-0.51948 -0.11064,-0.80888 -0.25974,-1.16883c-0.07029,-0.16969 -0.25974,-0.12987 -0.38961,-0.25974c-0.12987,-0.12987 -0.2839,-0.21981 -0.51948,-0.38961c-0.29799,-0.21478 -0.54697,-0.48235 -0.90909,-0.77922c-0.28407,-0.23288 -0.35136,-0.43457 -0.64935,-0.64935c-0.23558,-0.1698 -0.38961,-0.25974 -0.51948,-0.25974c-0.12987,0 -0.39656,-0.0702 -0.64935,-0.12987c-0.28263,-0.06672 -0.49659,-0.19302 -0.77922,-0.25974c-0.1264,-0.02984 -0.16791,-0.03804 -0.25974,-0.12987c-0.09183,-0.09183 0,0 0.25974,0c0.25974,0 0.52283,0.08826 0.77922,0.12987c0.40538,0.06578 0.87806,0.31375 1.2987,0.51948c0.36892,0.18044 0.81948,0.1737 1.16883,0.38961c0.15623,0.09656 0.16791,0.16791 0.25974,0.25974c0.09183,0.09183 0.18946,0.09006 0.25974,0.25974c0.0497,0.11999 0.11998,0.30944 0,0.25974c-0.16968,-0.07029 -0.41377,-0.34968 -0.64935,-0.51948c-0.29799,-0.21478 -0.51948,-0.51948 -0.77922,-0.77922c-0.25974,-0.25974 -0.51948,-0.38961 -0.64935,-0.51948c-0.12987,-0.12987 -0.41433,-0.37422 -0.64935,-0.77922c-0.14576,-0.25117 -0.47955,-0.67351 -0.64935,-0.90909c-0.32217,-0.44699 -0.62646,-0.58263 -0.90909,-0.64935c-0.1264,-0.02984 -0.12987,-0.12987 -0.25974,-0.12987c-0.12987,0 -0.45989,0.03981 -0.38961,-0.12987c0.0497,-0.11999 0.23685,0.19302 0.51948,0.25974c0.25279,0.05968 0.77721,0.27023 1.42857,0.38961c0.77703,0.14242 1.29136,0.27892 1.94805,0.51948c0.38563,0.14126 0.77922,0.25974 0.77922,0.12987c0,-0.25974 -0.52283,0.0416 -0.77922,0c-0.40538,-0.06578 -0.76345,-0.19396 -1.16883,-0.25974c-0.64097,-0.10401 -1.1737,-0.05053 -1.81818,-0.12987c-0.53146,-0.06543 -1.17104,-0.20618 -1.81818,-0.25974c-0.78728,-0.06516 -1.54646,-0.19432 -2.07792,-0.25974c-0.25779,-0.03174 -0.48144,-0.03804 -0.38961,-0.12987c0.09183,-0.09183 0.26511,-0.01984 0.77922,0.12987c0.39431,0.11482 0.9044,0.27479 1.2987,0.38961c0.51411,0.14971 0.82946,0.37891 1.16883,0.51948c0.23997,0.0994 0.55752,0.03804 0.64935,0.12987c0.09183,0.09183 0.12987,0.12987 0.25974,0.12987c0.12987,0 0.12987,0.12987 0,0.12987c-0.12987,0 -0.50371,-0.06409 -0.90909,-0.12987c-0.25639,-0.04161 -0.52643,-0.07019 -0.77922,-0.12987c-0.28263,-0.06672 -0.49312,-0.16318 -0.64935,-0.25974c-0.34935,-0.21591 -0.84951,-0.21993 -0.77922,-0.38961c0.0497,-0.11998 0.26151,-0.04285 0.77922,0c0.78728,0.06516 1.54335,0.33005 2.5974,0.51948c1.15748,0.20802 1.94805,0.25974 2.72727,0.38961c0.77922,0.12987 1.03549,0.28958 0.90909,0.25974c-0.28263,-0.06672 -0.37048,-0.28222 -0.51948,-0.38961c-0.23558,-0.1698 -0.49659,-0.32289 -0.77922,-0.38961c-0.25279,-0.05968 -0.51948,-0.12987 -0.64935,-0.12987c-0.12987,0 -0.26641,-0.0888 -0.38961,-0.12987c-0.61603,-0.20534 -0.46837,-0.59078 -1.16883,-1.03896c-0.24461,-0.15651 -0.51948,-0.25974 -0.64935,-0.38961c-0.12987,-0.12987 -0.25974,-0.12987 -0.38961,-0.12987c-0.12987,0 -0.25974,0 -0.38961,0c-0.12987,0 -0.29778,0.03804 -0.38961,0.12987c-0.09183,0.09183 -0.21993,0.31932 -0.38961,0.38961c-0.11998,0.0497 -0.38961,0.12987 -0.51948,0.12987c-0.25974,0 -0.51948,0.12987 -0.77922,0.12987c-0.25974,0 -0.38961,0 -0.51948,0c-0.12987,0 -0.38961,0 -0.90909,0c-0.77922,0 -1.2987,0 -1.81818,0c-0.25974,0 -0.12987,0 0.12987,0c0.25974,0 0.6533,-0.02517 1.55844,0.12987c1.30541,0.22361 2.46803,0.38375 4.02597,0.51948c1.42905,0.1245 2.85714,0.51948 2.85714,0.12987c0,-0.12987 -0.25974,0 -0.51948,0c-0.25974,0 -0.51948,0 -0.77922,0c-0.51948,0 -0.90909,0 -1.03896,0c-0.12987,0 -0.25974,0 -0.38961,0.12987c-0.12987,0.12987 -0.2217,0.29778 -0.12987,0.38961c0.09183,0.09183 0.25974,0 0.38961,0.12987c0.12987,0.12987 0.38961,0.12987 0.64935,0.25974c0.25974,0.12987 0.30998,0.24904 0.64935,0.38961c0.35995,0.1491 0.55752,0.03804 0.64935,0.12987c0.09183,0.09183 0.03804,0.16791 0.12987,0.25974c0.09183,0.09183 0.03804,0.16791 0.12987,0.25974c0.09183,0.09183 0.10739,-0.11074 0,-0.25974c-0.1698,-0.23558 -0.38961,-0.64935 -0.77922,-1.03896c-0.51948,-0.51948 -0.8762,-0.82745 -1.42857,-1.16883c-0.24703,-0.15267 -0.3995,-0.08017 -0.51948,-0.12987c-0.16968,-0.07029 -0.38961,-0.12987 -0.51948,-0.12987c-0.12987,0 -0.26169,-0.03174 -0.51948,0c-0.53146,0.06543 -0.64935,0.12987 -0.51948,0.12987c0.12987,0 0.38961,0.12987 0.51948,0.12987c0.12987,0 0.38961,0.12987 0.38961,0c0,-0.12987 -0.38106,-0.01874 -0.64935,-0.12987c-0.37942,-0.15716 -0.77187,-0.27893 -1.42857,-0.51948c-0.77126,-0.28252 -1.53555,-0.45276 -1.81818,-0.51948c-0.1264,-0.02984 -0.02289,0.06315 0.25974,0.12987c0.1264,0.02984 0.23685,0.19302 0.51948,0.25974c0.25279,0.05968 0.77922,0 1.2987,0c0.38961,0 0.77922,0 1.03896,0c0.25974,0 0.38961,-0.12987 0.25974,-0.12987c-0.25974,0 -0.64935,0 -1.03896,0c-0.51948,0 -0.90909,0 -1.2987,0c-0.25974,0 -0.47967,-0.05959 -0.64935,-0.12987c-0.11998,-0.0497 -0.25974,0 -0.12987,0c0.12987,0 0.26321,-0.02984 0.38961,0c0.28263,0.06672 0.38961,0.12987 0.51948,0.12987c0.25974,0 0.39309,0.02984 0.51948,0c0.28263,-0.06672 0.38961,-0.25974 0.64935,-0.38961c0.25974,-0.12987 0.38961,-0.25974 0.38961,-0.38961c0,-0.12987 -0.12987,-0.12987 -0.25974,-0.12987c-0.12987,0 -0.38961,0 -0.51948,0c-0.12987,0 -0.25974,0 -0.25974,0.12987c0,0.12987 -0.25974,0.38961 -0.38961,0.51948c-0.12987,0.12987 -0.18946,0.21993 -0.25974,0.38961c-0.0497,0.11998 -0.16791,0.03804 -0.25974,0.12987c-0.09183,0.09183 0,0.25974 0,0.38961c0,0.12987 0,0.25974 0,0.38961c0,0.12987 -0.18946,0.3498 -0.25974,0.51948c-0.0994,0.23997 -0.12987,0.38961 -0.12987,0.51948c0,0.12987 -0.08017,0.24986 -0.12987,0.12987c-0.07029,-0.16969 -0.12987,-0.38961 -0.12987,-0.64935c0,-0.25974 0,-0.38961 0,-0.64935c0,-0.25974 -0.00989,-0.33991 -0.12987,-0.38961c-0.16968,-0.07029 -0.29778,-0.03804 -0.38961,-0.12987c-0.09183,-0.09183 -0.12987,-0.12987 -0.12987,-0.25974c0,-0.12987 0.08017,-0.26963 0.12987,-0.38961c0.07029,-0.16968 0.12987,-0.25974 0.12987,-0.12987c0,0.12987 0.08017,0.26962 0.12987,0.38961c0.07029,0.16968 0.22149,0.3047 0.51948,0.51948c0.23558,0.1698 0.54364,0.21981 0.77922,0.38961c0.149,0.10739 0.21993,0.33002 0.38961,0.25974c0.11999,-0.0497 -0.08017,-0.26963 -0.12987,-0.38961c-0.07028,-0.16968 -0.21993,-0.18946 -0.38961,-0.25974c-0.11999,-0.0497 -0.2299,-0.13334 -0.25974,-0.25974c-0.06672,-0.28263 -0.32383,-0.63358 -0.38961,-1.03896c-0.06241,-0.38458 0,-0.64935 0,-0.77922c0,-0.12987 -0.03804,-0.09183 -0.12987,0c-0.09183,0.09183 -0.26963,0.08017 -0.38961,0.12987c-0.16968,0.07028 -0.29778,0.03804 -0.38961,0.12987c-0.09183,0.09183 0,0.25974 0,0.51948c0,0.12987 -0.05959,0.21992 -0.12987,0.38961c-0.0497,0.11998 0,0.25974 0,0.51948c0,0.38961 0.11003,0.91446 0.25974,1.42857c0.11482,0.39431 0.25392,0.85054 0.38961,1.2987c0.07527,0.2486 0.06444,0.50751 0.12987,1.03896c0.03174,0.2578 0.02729,0.52967 -0.12987,0.90909c-0.11113,0.26829 -0.32289,0.49659 -0.38961,0.77922c-0.02984,0.1264 -0.12987,0.12987 -0.12987,0c0,-0.12987 -0.12987,-0.25974 -0.12987,-0.38961c0,-0.25974 -0.12987,-0.51948 -0.12987,-0.64935c0,-0.25974 -0.06409,-0.50371 -0.12987,-0.90909c-0.0416,-0.25639 0,-0.64935 0,-0.90909c0,-0.38961 0,-0.64935 0,-0.90909c0,-0.25974 0,-0.64935 0,-0.90909c0,-0.12987 0,-0.38961 0,-0.51948c0,-0.12987 0,-0.25974 0,-0.38961c0,-0.12987 -0.05959,-0.21993 -0.12987,-0.38961c-0.0497,-0.11999 -0.12987,-0.12987 -0.12987,0c0,0.12987 -0.12987,0.38961 -0.12987,0.51948c0,0.12987 0,0.25974 0.12987,0.38961l0.12987,0.12987l0.12987,0" id="svg_12" stroke="#e228d9" fill="none"/>
  <path d="m32.20779,20.58442c0.12987,0.12987 0.16791,0.16791 0.25974,0.25974c0.18366,0.18366 0.4492,0.03981 0.51948,-0.12987c0.0497,-0.11998 0.02729,-0.26993 -0.12987,-0.64935c-0.11113,-0.26829 -0.25974,-0.64935 -0.38961,-0.90909c-0.12987,-0.25974 -0.25974,-0.51948 -0.25974,-0.38961c0,0.12987 0.38961,0.25974 0.64935,0.51948c0.25974,0.25974 0.58611,0.33688 0.77922,0.64935c0.21591,0.34935 0.27479,0.77452 0.38961,1.16883c0.14971,0.51411 0.25974,1.03896 0.25974,1.42857c0,0.38961 0.18946,0.73941 0.25974,0.90909c0.0497,0.11998 -0.13976,0.17957 -0.25974,0.12987c-0.16968,-0.07029 -0.20018,-0.35099 -0.38961,-0.77922c-0.21663,-0.48969 -0.29721,-0.89198 -0.51948,-1.42857c-0.15716,-0.37943 -0.32289,-0.62646 -0.38961,-0.90909c-0.02984,-0.1264 0.12987,-0.12987 0.25974,-0.12987c0.12987,0 0.25974,0 0.51948,0c0.25974,0 0.62646,0.06315 0.90909,0.12987c0.1264,0.02984 0.31933,-0.03981 0.38961,0.12987c0.0497,0.11998 0.12987,0.25974 0.12987,0.51948c0,0.38961 0.06409,0.63358 0.12987,1.03896c0.0208,0.12819 0.05959,0.3498 0.12987,0.51948c0.0497,0.11998 0,0.38961 0,0.77922c0,0.12987 0,0.25974 0,0.38961c0,0.25974 -0.12987,0.51948 0,0.51948c0.12987,0 -0.12987,-0.25974 -0.25974,-0.64935c-0.12987,-0.38961 -0.32383,-0.63358 -0.38961,-1.03896c-0.08321,-0.51277 0,-1.03896 0,-1.42857c0,-0.12987 -0.0497,-0.24986 0,-0.12987c0.07029,0.16969 0.16034,0.40938 0.25974,0.64935c0.07029,0.16969 0.34968,0.54364 0.51948,0.77922c0.10739,0.149 0.15235,0.37049 0.25974,0.51948c0.1698,0.23558 0.18946,0.3498 0.25974,0.51948c0.0994,0.23997 0,0.51948 0,0.77922c0,0.25974 0.12987,0.51948 0.12987,0.64935c0,0.25974 0.06315,0.36672 0.12987,0.64935c0.02984,0.1264 0,0.25974 0,0.38961c0,0.25974 0,0.51948 0,0.64935c0,0.12987 0,0.25974 0,0.38961c0,0.12987 0,0.25974 0,0.51948c0,0.12987 0,0.25974 0,0.38961c0,0.12987 -0.15403,0.21981 -0.38961,0.38961c-0.149,0.10739 -0.31932,0.3498 -0.38961,0.51948c-0.0497,0.11999 -0.03804,0.16791 -0.12987,0.25974c-0.09183,0.09183 -0.12987,0.12987 -0.12987,0.25974c0,0.12987 0,0.25974 -0.12987,0.38961c-0.12987,0.12987 -0.31414,0.31414 -0.51948,0.51948c-0.20534,0.20534 -0.45276,0.36672 -0.51948,0.64935c-0.02984,0.1264 -0.19302,0.23685 -0.25974,0.51948c-0.02984,0.1264 -0.03804,0.29778 -0.12987,0.38961c-0.09183,0.09183 -0.18946,0.09005 -0.25974,0.25974c-0.0497,0.11998 -0.16791,0.03804 -0.25974,0.12987c-0.09183,0.09183 -0.1264,0.15971 0,0.12987c0.28263,-0.06672 0.54364,-0.21981 0.77922,-0.38961c0.14899,-0.10739 0.21004,-0.26962 0.25974,-0.38961c0.07029,-0.16968 0.22149,-0.3047 0.51948,-0.51948c0.23558,-0.1698 0.36528,-0.41647 0.64935,-0.64935c0.36212,-0.29687 0.58357,-0.50371 0.64935,-0.90909c0.0208,-0.12819 0.12987,-0.38961 0,-0.38961c-0.12987,0 -0.10003,0.13334 -0.12987,0.25974c-0.06672,0.28263 -0.25974,0.51948 -0.25974,0.64935c0,0.12987 -0.09006,0.31932 -0.25974,0.38961c-0.11998,0.0497 -0.12987,0.12987 -0.25974,0.25974c-0.12987,0.12987 -0.25974,0.25974 -0.38961,0.38961c-0.25974,0.25974 -0.56444,0.48123 -0.77922,0.77922c-0.1698,0.23558 -0.36681,0.27245 -0.51948,0.51948c-0.06828,0.11047 -0.13976,0.08017 -0.25974,0.12987c-0.16969,0.07029 -0.26669,0.07019 -0.51948,0.12987c-0.28263,0.06672 -0.65282,0.35977 -0.77922,0.38961c-0.28263,0.06672 -0.3995,0.21004 -0.51948,0.25974c-0.16968,0.07029 -0.25974,0.12987 -0.25974,0c0,-0.12987 -0.02984,-0.39309 0,-0.51948c0.06672,-0.28263 0.12987,-0.51948 0.25974,-0.64935c0.25974,-0.25974 0.51948,-0.51948 0.77922,-0.77922c0.38961,-0.38961 0.69431,-0.6111 0.90909,-0.90909c0.1698,-0.23558 0.16791,-0.42765 0.25974,-0.51948c0.09183,-0.09183 0.35157,-0.16791 0.25974,-0.25974c-0.09183,-0.09183 -0.25504,0.14492 -0.64935,0.25974c-0.51411,0.14971 -0.78941,0.36232 -1.16883,0.51948c-0.26829,0.11113 -0.67684,0.22261 -1.03896,0.51948c-0.14203,0.11644 -0.65924,0.21004 -0.77922,0.25974c-0.16968,0.07029 -0.25974,0.12987 -0.51948,0.12987c-0.12987,0 -0.25974,0 -0.38961,0c-0.12987,0 -0.12987,-0.12987 0,-0.25974l0.12987,-0.12987" id="svg_14" stroke="#e228d9" fill="none"/>
  <path d="m23.50649,19.15584c0.12987,0 0.12987,-0.12987 0.12987,-0.25974c0,-0.25974 0.25974,-0.77922 0,-0.77922c-0.12987,0 0,0.64935 0,1.2987c0,0.38961 -0.06347,1.04285 0,1.55844c0.06542,0.53146 0.12987,0.90909 0.12987,1.16883c0,0.25974 0,0.51948 0,0.64935c0,0.12987 0,0 0,-0.12987c0,-0.25974 -0.06315,-0.49659 -0.12987,-0.77922c-0.05968,-0.25279 -0.06445,-0.63737 -0.12987,-1.16883c-0.06347,-0.51559 0.0416,-1.04231 0,-1.2987c-0.06578,-0.40538 -0.09006,-0.71964 -0.25974,-0.64935c-0.11998,0.0497 0.05356,0.39182 0,1.03896c-0.06516,0.78728 -0.31027,1.43344 -0.38961,2.07792c-0.06543,0.53146 -0.12987,0.90909 -0.12987,1.16883c0,0.25974 -0.1491,0.10021 0,-0.25974c0.07029,-0.16968 0.12987,-0.51948 0.12987,-0.90909c0,-0.51948 0,-0.77922 0,-1.2987c0,-0.38961 0,-0.64935 0,-0.90909c0,-0.12987 -0.09183,-0.29778 0,-0.38961c0.09183,-0.09183 0.18946,0.21993 0.25974,0.38961c0.0994,0.23997 0.12987,0.51948 0.12987,0.64935c0,0.12987 0.12987,0.25974 0.12987,0.12987c0,-0.12987 0.0416,-0.39296 0,-0.64935c-0.06578,-0.40538 -0.12987,-0.51948 -0.12987,-0.64935c0,-0.12987 0,-0.25974 0,-0.38961c0,-0.12987 0.05958,-0.21993 0.12987,-0.38961c0.0497,-0.11998 -0.03804,-0.16791 -0.12987,-0.25974c-0.09183,-0.09183 -0.31932,0.03981 -0.38961,-0.12987c-0.0497,-0.11998 0,-0.25974 0.12987,-0.38961c0.12987,-0.12987 0.12987,-0.25974 0.25974,-0.25974c0.12987,0 0.25974,0 0.38961,0c0.25974,0 0.3498,-0.18945 0.51948,-0.25974c0.11999,-0.0497 0.25974,0 0.38961,0c0.12987,0 0.25974,0 0.38961,0c0.12987,0 0.25974,0.12987 0.51948,0.12987c0.25974,0 0.51948,0 0.77922,0c0.12987,0 0.16791,0.03804 0.25974,0.12987c0.09183,0.09183 0.13976,0.08017 0.25974,0.12987c0.16968,0.07028 0.29778,0.03804 0.38961,0.12987c0.09183,0.09183 0.12987,0.12987 0.25974,0.12987c0.12987,0 0.25974,0 0.51948,0l0.25974,0" id="svg_15" stroke="#e228d9" fill="none"/>
 </g>
</svg>